HIERARCHY
ROOT Bip001_Pelvis
{
  OFFSET 33.2923 95.8902 -28.781
  CHANNELS 6 Xposition Yposition Zposition Zrotation Xrotation Yrotation
  JOINT Bip001_Spine
  {
    OFFSET 1.4188e-005 10.2191 -0.0116013
    CHANNELS 3 Zrotation Xrotation Yrotation
    JOINT Bip001_L_Thigh
    {
      OFFSET 11.0458 -10.2192 0.0116197
      CHANNELS 3 Zrotation Xrotation Yrotation
      JOINT Bip001_L_Calf
      {
        OFFSET -0.707118 -44.0221 0.360014
        CHANNELS 3 Zrotation Xrotation Yrotation
        JOINT Bip001_L_Foot
        {
          OFFSET -0.651902 -40.5938 -3.56146
          CHANNELS 3 Zrotation Xrotation Yrotation
          JOINT Bip001_L_Toe0
          {
            OFFSET 0.0530839 -10.2181 13.1504
            CHANNELS 3 Zrotation Xrotation Yrotation
            End Site
            {
              OFFSET -1.02532e-005 0 7.55606
            }
          }
        }
      }
    }
    JOINT Bip001_R_Thigh
    {
      OFFSET -11.0458 -10.2191 0.0115893
      CHANNELS 3 Zrotation Xrotation Yrotation
      JOINT Bip001_R_Calf
      {
        OFFSET 0.706994 -44.0221 0.35984
        CHANNELS 3 Zrotation Xrotation Yrotation
        JOINT Bip001_R_Foot
        {
          OFFSET 0.651786 -40.5938 -3.5613
          CHANNELS 3 Zrotation Xrotation Yrotation
          JOINT Bip001_R_Toe0
          {
            OFFSET -0.0531479 -10.2181 13.1504
            CHANNELS 3 Zrotation Xrotation Yrotation
            End Site
            {
              OFFSET -1.02894e-005 0 7.55606
            }
          }
        }
      }
    }
    JOINT Bip001_Spine1
    {
      OFFSET 1.87041e-005 14.5736 1.08638
      CHANNELS 3 Zrotation Xrotation Yrotation
      JOINT Bip001_Spine2
      {
        OFFSET 2.24614e-005 14.5058 -1.69078
        CHANNELS 3 Zrotation Xrotation Yrotation
        JOINT Bip001_Neck
        {
          OFFSET 2.20278e-005 15.3945 -0.489414
          CHANNELS 3 Zrotation Xrotation Yrotation
          JOINT Bip001_L_Clavicle
          {
            OFFSET 6.06036 -0.000579998 0.00836775
            CHANNELS 3 Zrotation Xrotation Yrotation
            JOINT Bip001_L_UpperArm
            {
              OFFSET 11.5509 -0.0600302 0.00193952
              CHANNELS 3 Zrotation Xrotation Yrotation
              JOINT Bip001_L_Forearm
              {
                OFFSET 25.9523 0.0806089 -2.15551
                CHANNELS 3 Zrotation Xrotation Yrotation
                JOINT Bip001_L_Hand
                {
                  OFFSET 32.2476 0.153767 1.63968
                  CHANNELS 3 Zrotation Xrotation Yrotation
                  JOINT Bip001_L_Finger0
                  {
                    OFFSET 6.04639 -2.20976 5.90322
                    CHANNELS 3 Zrotation Xrotation Yrotation
                    End Site
                    {
                      OFFSET 4.22376 -1.43895 0.606486
                    }
                  }
                  JOINT Bip001_L_Finger1
                  {
                    OFFSET 11.0826 -0.704819 -0.198153
                    CHANNELS 3 Zrotation Xrotation Yrotation
                    End Site
                    {
                      OFFSET 6.20028 -0.397518 -0.0787166
                    }
                  }
                }
              }
            }
          }
          JOINT Bip001_R_Clavicle
          {
            OFFSET -6.06036 -0.000563197 0.00835105
            CHANNELS 3 Zrotation Xrotation Yrotation
            JOINT Bip001_R_UpperArm
            {
              OFFSET -11.5509 -0.0599978 0.00190698
              CHANNELS 3 Zrotation Xrotation Yrotation
              JOINT Bip001_R_Forearm
              {
                OFFSET -25.9523 0.080682 -2.1559
                CHANNELS 3 Zrotation Xrotation Yrotation
                JOINT Bip001_R_Hand
                {
                  OFFSET -32.2476 0.153858 1.63991
                  CHANNELS 3 Zrotation Xrotation Yrotation
                  JOINT Bip001_R_Finger0
                  {
                    OFFSET -6.04641 -2.20974 5.90321
                    CHANNELS 3 Zrotation Xrotation Yrotation
                    End Site
                    {
                      OFFSET -4.22376 -1.43894 0.606474
                    }
                  }
                  JOINT Bip001_R_Finger1
                  {
                    OFFSET -11.0826 -0.704789 -0.198184
                    CHANNELS 3 Zrotation Xrotation Yrotation
                    End Site
                    {
                      OFFSET -6.20028 -0.397501 -0.0787338
                    }
                  }
                }
              }
            }
          }
          JOINT Bip001_Head
          {
            OFFSET 1.09673e-005 11.2744 2.05948
            CHANNELS 3 Zrotation Xrotation Yrotation
            End Site
            {
              OFFSET 2.89576e-005 20.8808 -2.77728e-005
            }
          }
        }
      }
    }
  }
}
MOTION
Frames:	8
Frame Time:	0.04
32.5042 95.8623 -28.6909 0.214578 -1.15399 0.854161 -0.220281 2.54393 -0.229453 5.21523 -2.71419 7.13405 -0.351653 7.36355 -12.3097 5.61848 -1.17811 -0.220292 -3.04424 -5.47778 5.12391 -2.87548 -3.22592 -1.17408 0.30771 10.9753 0.295112 -5.54515 -9.80038 2.39194 1.97016 -7.07133 2.48821 -0.434439 5.09502 -0.450246 -0.434683 5.09503 -0.450248 -3.04941 -3.16018 -1.57725 -20.5723 5.09815 -2.94997 -51.415 40.9906 -0.24178 12.8157 0.748478 -24.9841 8.04498 0.789664 -2.18193 8.82781e-032 -3.18055e-015 1.59028e-015 -3.18055e-015 3.18056e-015 1.59028e-015 20.933 11.0365 26.7707 79.0629 -34.8101 57.7029 -34.0084 -8.17238 89.662 -30.1067 15.2157 0.971194 -0 0 8.74652e-015 3.18055e-015 0 1.11319e-014 2.94289 12.3636 -3.25337 
32.4382 95.8798 -28.7788 0.161911 -1.04705 0.441069 -0.225129 2.53788 -0.19641 5.35461 -2.79139 7.2505 -0.464098 7.37534 -12.0088 5.49907 -1.2739 -0.219312 -3.10278 -5.36263 5.18629 -2.79429 -3.43624 -0.783575 0.323167 10.9221 0.13111 -5.43705 -9.70603 2.53902 1.95297 -7.00086 2.47316 -0.432311 5.08546 -0.382478 -0.431827 5.08545 -0.382476 -2.82835 -3.09764 -1.62562 -20.7095 5.11357 -3.27395 -51.4824 39.8019 -0.235837 12.9324 1.94197 -24.767 7.67359 0.900814 -2.41375 6.36111e-015 3.18055e-015 -3.18055e-015 3.18055e-015 3.18056e-015 -3.18055e-015 22.4779 11.032 25.0283 72.0201 -35.6724 50.3999 -34.9833 -7.86131 88.4679 -28.9304 14.7348 0.624234 3.75182e-031 -3.18055e-015 6.75868e-015 -1.10348e-032 -1.59028e-015 -3.97569e-016 2.67421 12.2926 -3.16066 
32.4577 95.8856 -28.8254 0.255193 -1.02616 0.214736 -0.225072 2.56569 -0.21678 5.21181 -2.72229 7.29267 -0.430159 7.15888 -11.822 5.48647 -1.12464 -0.219717 -3.08832 -5.39383 5.18831 -2.93367 -3.61481 -0.797354 0.351884 11.06 0.0179273 -5.32099 -9.80237 2.85295 1.93593 -6.94467 2.45138 -0.44299 5.13217 -0.424012 -0.442839 5.13219 -0.42403 -3.0649 -3.23 -1.52492 -20.5442 5.25863 -3.23416 -51.2487 39.9921 -0.433009 12.8695 1.87182 -24.5528 7.4291 1.02375 -2.40322 3.18055e-015 3.18055e-015 -1.59028e-015 0 0 -1.59028e-015 24.4541 11.1853 23.443 63.1684 -35.3868 41.1308 -35.8978 -7.37302 87.5246 -29.2293 13.8883 0.404536 3.18055e-015 1.59028e-015 -8.34895e-015 6.36111e-015 3.97569e-015 -6.55989e-015 2.83566 12.371 -3.17359 
32.4528 95.8916 -28.8505 0.279156 -0.997378 0.124719 -0.215898 2.5828 -0.244965 5.15797 -2.72021 7.39617 -0.393838 7.05992 -11.7962 5.43412 -1.07885 -0.223001 -3.08856 -5.40035 5.18884 -2.96557 -3.70801 -0.672773 0.344746 11.0891 0.0416852 -5.29835 -9.78538 2.84689 1.93405 -6.91289 2.44925 -0.420244 5.16647 -0.479455 -0.420746 5.16647 -0.479624 -3.0491 -3.35943 -1.55114 -20.7573 5.37464 -3.14564 -50.7489 40.826 -0.485902 12.7681 1.34097 -24.6638 7.40461 1.0189 -2.19401 -3.18055e-015 0 3.18055e-015 -8.82782e-032 3.18056e-015 1.59028e-015 25.4594 11.2163 22.1856 54.8715 -33.3988 30.6829 -36.6714 -6.7373 87.4229 -30.0966 13.8471 -0.0897561 -6.36111e-015 2.88238e-015 1.04362e-015 -3.18055e-015 1.78906e-015 4.72114e-015 2.72865 12.5442 -3.16285 
32.3289 95.8972 -28.9503 -0.038131 -0.660201 0.232437 -0.130774 2.55486 -0.250985 5.62438 -3.3483 7.00223 -0.660319 7.5773 -11.3948 5.39966 -1.31439 -0.210168 -3.1141 -5.32634 5.18899 -2.57662 -3.88211 -0.184849 0.342491 10.6807 -0.0472556 -5.43455 -9.44829 2.37631 1.93433 -6.9262 2.44773 -0.250432 5.11025 -0.502731 -0.250416 5.11025 -0.502727 -3.29002 -3.47902 -1.63562 -20.9186 5.48746 -3.02773 -50.0311 41.5804 -0.815554 12.742 0.759421 -24.682 7.56339 1.03865 -2.08751 6.36111e-015 -6.36111e-015 -1.59028e-015 6.36111e-015 -6.36111e-015 -0 27.6117 11.4557 20.8696 45.7574 -29.0973 20.139 -36.3543 -6.44313 85.689 -30.3902 13.347 0.458567 -1.27222e-014 6.36111e-015 2.38542e-015 -9.54166e-015 4.37326e-015 1.59028e-015 2.968 12.5207 -3.37795 
32.3677 95.8929 -28.9082 0.119939 -0.698423 0.408729 -0.160444 2.60574 -0.227935 5.38691 -3.24757 6.92975 -0.54853 7.28601 -11.5651 5.61081 -1.01677 -0.232847 -3.01553 -5.48207 5.11951 -2.75591 -3.92253 -0.502476 0.354385 10.8708 0.0701091 -5.4649 -9.59579 2.37108 1.93503 -6.94534 2.44691 -0.309469 5.21206 -0.449746 -0.310207 5.21206 -0.449566 -3.01686 -3.62076 -1.89724 -20.8906 5.54562 -2.91098 -50.0571 41.3016 -1.37754 12.8846 0.967263 -24.5492 7.51337 1.04467 -2.16295 -0 -3.18055e-015 -0 3.18055e-015 -3.18056e-015 -0 28.2447 11.5416 19.8446 39.8997 -21.6322 9.93829 -37.9448 -7.58683 83.5579 -27.7206 11.3602 1.82944 -6.36111e-015 -4.77083e-015 1.59028e-015 -6.36111e-015 -3.57813e-015 1.59028e-015 2.7687 12.5607 -3.48691 
32.4089 95.8842 -28.8424 0.344487 -0.763342 0.604575 -0.197629 2.66067 -0.169417 5.10809 -3.09729 6.88316 -0.442813 6.97846 -11.7711 5.61219 -0.861632 -0.241711 -2.9871 -5.48857 5.08228 -2.98505 -3.96439 -0.72745 0.376953 11.159 0.159969 -5.53193 -9.78116 2.25611 1.95142 -6.98646 2.45825 -0.389037 5.32192 -0.329266 -0.389349 5.32193 -0.329655 -2.71998 -3.5742 -2.20334 -21.3644 5.41123 -2.69877 -49.4319 40.7404 -2.12182 12.757 1.1501 -24.5732 7.60987 1.09125 -2.19972 3.53112e-031 6.36111e-015 -3.18055e-015 8.82782e-032 3.18056e-015 -1.59028e-015 29.1152 11.6139 19.1449 36.0523 -11.8186 1.25308 -40.7755 -7.66506 78.7835 -25.3586 10.3301 2.45095 -9.54166e-015 1.19271e-015 -7.95139e-016 -9.54166e-015 3.57813e-015 1.59028e-015 2.37614 12.4949 -3.57943 
32.4315 95.8822 -28.7712 0.386417 -0.796677 0.901773 -0.191422 2.70694 -0.170516 5.0412 -3.10228 6.62503 -0.425181 6.92715 -11.8472 5.39983 -0.949443 -0.225856 -3.09186 -5.45256 5.14646 -3.02881 -3.8512 -1.00307 0.345385 11.1115 0.17634 -5.5757 -9.82286 2.20374 1.96406 -7.02885 2.47456 -0.373116 5.41443 -0.332903 -0.373946 5.41444 -0.332828 -2.64811 -3.47289 -2.29988 -21.3808 5.25771 -2.58143 -49.3271 40.036 -2.58761 12.8389 1.44632 -24.8444 7.73795 0.9993 -2.42339 -0 -6.36111e-015 -0 -3.18055e-015 -3.18056e-015 1.59028e-015 29.4769 11.579 18.9899 35.5334 -1.42087 -4.9185 -39.9464 -7.7407 71.1166 -23.384 10.8994 1.13172 -1.59028e-015 5.1684e-015 -0 -1.59028e-015 7.15625e-015 -0 2.09451 12.3998 -3.55717 
